<?xml version="1.0" encoding="utf-8"?>
<!-- Generator: Adobe Illustrator 25.0.1, SVG Export Plug-In . SVG Version: 6.00 Build 0)  -->
<svg version="1.1" id="Layer_1" xmlns="http://www.w3.org/2000/svg" xmlns:xlink="http://www.w3.org/1999/xlink" x="0px" y="0px"
	 viewBox="0 0 300 77.482" style="enable-background:new 0 0 300 77.482;" xml:space="preserve">
<style type="text/css">
	.st0{fill:#FFFFFF;}
</style>
<g>
	<path class="st0" d="M17.12,1.667v59.697h23.012v14.452H0V1.667H17.12z"/>
	<path class="st0" d="M113.16,10.783c7.004,6.781,11.561,16.563,11.561,28.014c0,9.893-3.557,20.009-11.561,27.791
		c-6.892,6.67-16.231,10.894-28.681,10.894c-13.896,0-23.346-5.558-28.903-10.894c-7.115-6.669-11.562-16.674-11.562-27.568
		c0-10.672,4.781-21.455,11.451-28.125C60.467,5.891,69.694,0,84.479,0C96.04,0,105.712,3.557,113.16,10.783z M68.137,22.122
		c-3.224,3.113-6.559,8.559-6.559,16.787c0,6.781,2.224,12.228,6.781,16.674c4.781,4.559,10.116,6.115,15.898,6.115
		c7.559,0,12.895-2.779,16.452-6.337c2.891-2.779,6.448-8.004,6.448-16.563c0-7.672-3.113-13.34-6.448-16.675
		c-3.668-3.557-9.559-6.337-16.341-6.337C77.92,15.785,72.139,18.12,68.137,22.122z"/>
	<path class="st0" d="M173.174,35.351h36.797v0.778c0,9.004-3.224,22.678-11.451,31.238c-8.226,8.559-17.676,10.115-26.457,10.115
		c-8.894,0-18.453-1.445-27.125-10.337c-4.335-4.448-10.894-13.451-10.894-28.236c0-12.118,4.448-21.79,10.672-28.125
		C153.831,1.334,165.059,0,173.842,0c6.113,0,13.895,1,20.787,5.558c5.003,3.335,9.339,8.561,12.007,13.229l-15.453,8.337
		c-1.445-2.891-3.668-5.891-6.558-8.004c-3.335-2.446-7.115-3.557-11.34-3.557c-6.781,0-11.783,2.224-15.341,6.003
		c-4.113,4.335-6.337,10.672-6.337,17.564c0,8.448,3.113,13.896,6.226,17.008c4.335,4.448,9.339,5.781,15.007,5.781
		c7.337,0,11.228-2.557,12.896-4.002c0.556-0.445,3.891-3.335,5.335-8.782h-17.898V35.351z"/>
	<path class="st0" d="M288.439,10.783C295.443,17.564,300,27.346,300,38.797c0,9.893-3.557,20.009-11.561,27.791
		c-6.892,6.67-16.231,10.894-28.681,10.894c-13.896,0-23.346-5.558-28.903-10.894c-7.115-6.669-11.562-16.674-11.562-27.568
		c0-10.672,4.781-21.455,11.451-28.125C235.746,5.891,244.973,0,259.758,0C271.319,0,280.991,3.557,288.439,10.783z M243.416,22.122
		c-3.224,3.113-6.559,8.559-6.559,16.787c0,6.781,2.224,12.228,6.781,16.674c4.78,4.559,10.116,6.115,15.898,6.115
		c7.559,0,12.895-2.779,16.452-6.337c2.891-2.779,6.448-8.004,6.448-16.563c0-7.672-3.113-13.34-6.448-16.675
		c-3.668-3.557-9.559-6.337-16.341-6.337C253.199,15.785,247.418,18.12,243.416,22.122z"/>
</g>
</svg>
