<?xml version="1.0" encoding="utf-8"?>
<!-- Generator: Adobe Illustrator 25.0.0, SVG Export Plug-In . SVG Version: 6.00 Build 0)  -->
<svg version="1.1" id="Layer_1" xmlns="http://www.w3.org/2000/svg" xmlns:xlink="http://www.w3.org/1999/xlink" x="0px" y="0px"
	 viewBox="0 0 100 100" style="enable-background:new 0 0 100 100;" xml:space="preserve">
<style type="text/css">
	.st0{fill-rule:evenodd;clip-rule:evenodd;}
</style>
<path id="Twitter" class="st0" d="M31.45,90.635c38.085,0,59.61-32.173,58.312-61.028c4.01-2.888,7.485-6.503,10.238-10.62
	c-3.68,1.632-7.635,2.735-11.783,3.228c4.23-2.53,7.485-6.553,9.02-11.35c-3.965,2.355-8.355,4.06-13.022,4.98
	c-3.745-3.99-9.077-6.48-14.977-6.48c-13.243,0-22.975,12.358-19.985,25.19C32.2,33.702,17.083,25.532,6.965,13.12
	c-5.377,9.225-2.787,21.287,6.35,27.39c-3.367-0.105-6.532-1.03-9.297-2.565c-0.22,9.505,6.587,18.397,16.458,20.377
	c-2.89,0.785-6.055,0.965-9.265,0.347c2.607,8.152,10.185,14.08,19.165,14.25C21.747,79.682,10.882,82.702,0,81.415
	C9.08,87.235,19.862,90.635,31.45,90.635z"/>
</svg>
